<svg width="64" height="64" viewBox="0 0 64 64" fill="none" xmlns="http://www.w3.org/2000/svg">
<rect width="64" height="64" rx="32" fill="black"/>
<path d="M44.5879 2.5713C44.0904 2.35822 43.5141 2.58875 43.3012 3.08646C43.0881 3.58398 43.3187 4.1603 43.8164 4.37319C54.8867 9.11452 62.0397 19.9586 62.0397 32C62.0397 48.564 48.564 62.0397 32 62.0397C15.436 62.0397 1.96028 48.564 1.96028 32C1.96028 15.436 15.436 1.96028 32 1.96028C35.0108 1.96028 37.9824 2.40409 40.832 3.27935C41.3496 3.43794 41.8976 3.14762 42.0568 2.6303C42.2158 2.11279 41.9251 1.5645 41.4076 1.40552C38.3713 0.47282 35.206 0 32 0C14.3551 0 0 14.3551 0 32C0 49.6449 14.3551 64 32 64C49.6449 64 64 49.6449 64 32C64 19.1731 56.3804 7.62157 44.5879 2.5713Z" fill="white"/>
<path d="M51.7625 17.9685C51.9694 17.9685 52.1779 17.9032 52.3551 17.7684C52.786 17.4406 52.8695 16.8257 52.5418 16.3948C52.1434 15.8712 51.7194 15.3559 51.2815 14.8634C50.9218 14.4588 50.3021 14.4226 49.8977 14.7823C49.4931 15.142 49.4569 15.7614 49.8166 16.166C50.2214 16.6212 50.6132 17.0976 50.9816 17.5818C51.1747 17.835 51.4669 17.9685 51.7625 17.9685Z" fill="white"/>
<path d="M31.9998 55.8358C27.0065 55.8358 22.2262 54.3087 18.1753 51.4195C17.7346 51.1052 17.1224 51.2076 16.8082 51.6484C16.494 52.0891 16.5963 52.7013 17.0371 53.0155C21.4221 56.143 26.5963 57.7961 32 57.7961C46.2239 57.7961 57.7961 46.2239 57.7961 32C57.7961 27.5156 56.6273 23.0985 54.4163 19.2266C54.1482 18.7565 53.5493 18.5932 53.0792 18.8616C52.6092 19.1299 52.4457 19.7286 52.7142 20.1987C54.7565 23.775 55.8358 27.8559 55.8358 32C55.8356 45.143 45.1428 55.8358 31.9998 55.8358Z" fill="white"/>
<path d="M13.5492 48.6239C13.1616 49.0018 13.154 49.6225 13.5319 50.01C13.8516 50.3378 14.1851 50.6618 14.5225 50.9727C14.7108 51.1464 14.9488 51.2321 15.1864 51.2321C15.4507 51.2321 15.7143 51.1258 15.9074 50.9161C16.2742 50.5181 16.2489 49.8979 15.8507 49.5311C15.5389 49.2437 15.2309 48.9442 14.9353 48.6411C14.5572 48.2538 13.9367 48.246 13.5492 48.6239Z" fill="white"/>
<path d="M32 6.20392C17.776 6.20392 6.2041 17.776 6.2041 32C6.2041 37.3396 7.82153 42.4632 10.8811 46.8168C11.0721 47.0883 11.3755 47.2335 11.6839 47.2335C11.8785 47.2335 12.0753 47.1757 12.2467 47.0552C12.6895 46.7439 12.7963 46.1325 12.485 45.6896C9.65851 41.6679 8.16438 36.934 8.16438 32C8.16438 18.8569 18.8569 8.1642 32 8.1642C37.866 8.1642 43.5035 10.3142 47.8738 14.2185C48.2776 14.5792 48.897 14.5441 49.2577 14.1405C49.6182 13.7367 49.5835 13.1172 49.1797 12.7565C44.4496 8.53116 38.3484 6.20392 32 6.20392Z" fill="white"/>
<path d="M32.8014 42.1548C32.7244 41.7234 32.3452 41.3984 31.8975 41.3984C31.4519 41.3984 31.0732 41.7214 30.9944 42.1505C28.6603 41.8767 26.0347 40.4116 25.4633 38.1012C25.4621 38.0961 25.4503 38.0437 25.4141 37.7858C25.3468 37.3053 24.9379 36.9432 24.4614 36.9432C24.1958 36.9483 23.9435 37.0659 23.7696 37.2659C23.5955 37.4658 23.5138 37.7313 23.5452 37.9945C23.5787 38.2758 23.5914 38.357 23.5989 38.3962C23.9011 40.003 24.8668 41.3915 26.3911 42.4116C27.6806 43.2747 29.3068 43.8346 30.9797 43.9926V45.1556C30.9797 45.6383 31.342 46.0527 31.8046 46.0991C31.8362 46.1023 31.8671 46.1038 31.8979 46.1038C32.1837 46.1038 32.4489 45.9731 32.626 45.7453C32.7485 45.5875 32.8159 45.3773 32.8159 45.1535V43.9912C34.7436 43.8034 36.6326 43.066 38.0108 41.9606C39.614 40.6752 40.4614 38.9955 40.4614 37.1028C40.4614 36.6588 40.4089 36.2246 40.2859 35.6502C39.4301 31.7628 35.7826 31.3319 32.8159 31.0112V21.6444C34.43 21.7962 35.9498 22.4605 36.8958 23.4302C37.4186 24.0081 37.7737 24.7127 37.9497 25.5144C38.0022 25.9696 38.3872 26.313 38.8453 26.313C38.9018 26.313 38.9588 26.3075 39.0147 26.297L39.0541 26.2895C39.5132 26.2021 39.8268 25.7849 39.7837 25.3178L39.771 25.2012C39.4644 23.6033 38.5568 22.246 37.1462 21.2763C35.9465 20.4514 34.412 19.9302 32.8161 19.8037V18.8446C32.8161 18.3619 32.4538 17.9475 31.9912 17.9011C31.4439 17.8454 30.9797 18.2775 30.9799 18.8146V19.8129C30.0019 19.9037 29.0565 20.1284 28.1681 20.4812C27.9483 20.5684 27.7705 20.7229 27.6672 20.9166C27.5253 21.1824 27.5175 21.4843 27.6457 21.7444C27.8005 22.0588 28.1128 22.2541 28.4606 22.2541C28.5744 22.2541 28.6858 22.2327 28.7916 22.1904C29.465 21.9226 30.2007 21.7438 30.9799 21.6582V30.8474C28.4027 30.5218 25.8912 29.9231 25.5907 26.8978C25.5484 26.136 25.6264 25.0396 26.2374 24.144C26.2525 24.122 26.2943 24.0681 26.3497 23.9983C26.6593 23.6098 26.6069 23.0517 26.2307 22.7283C26.0641 22.5852 25.8516 22.5062 25.6321 22.5062C25.3496 22.5062 25.0867 22.6328 24.9113 22.8537C24.8662 22.9104 24.7576 23.0484 24.7225 23.1021C23.9868 24.2285 23.6238 25.6575 23.7267 27.0266C23.9441 28.9678 24.7901 30.3698 26.3129 31.3131C27.7686 32.2147 29.6551 32.5352 30.9797 32.6949V39.3428C30.9797 39.8303 31.3428 40.2479 31.8064 40.2932C32.3525 40.3463 32.8159 39.916 32.8159 39.3795V32.8857C35.5005 33.1799 37.9358 33.6645 38.4782 36.0662C38.5554 36.4008 38.5929 36.74 38.5929 37.1026C38.5927 40.1949 35.6091 41.8806 32.8014 42.1548Z" fill="white" stroke="white" stroke-width="0.5"/>
</svg>
